<svg width="100%" viewBox="0 0 1014 572" xmlns="http://www.w3.org/2000/svg" font-family="monospace"><rect width="1014" height="572" fill="#0a0c14"/>
<rect x="54" y="60" width="930" height="420" fill="#0e1320" stroke="#2a3550" stroke-width="1.5"/>
<line x1="54" y1="60" x2="54" y2="480" stroke="#161c2c" stroke-width="0.9"/>
<text x="69.0" y="494.0" fill="#6a7690" font-size="7.5" text-anchor="middle" font-weight="normal" font-family="monospace">0</text>
<line x1="84" y1="60" x2="84" y2="480" stroke="#161c2c" stroke-width="0.4"/>
<line x1="114" y1="60" x2="114" y2="480" stroke="#161c2c" stroke-width="0.4"/>
<text x="129.0" y="494.0" fill="#6a7690" font-size="7.5" text-anchor="middle" font-weight="normal" font-family="monospace">2</text>
<line x1="144" y1="60" x2="144" y2="480" stroke="#161c2c" stroke-width="0.4"/>
<line x1="174" y1="60" x2="174" y2="480" stroke="#161c2c" stroke-width="0.4"/>
<text x="189.0" y="494.0" fill="#6a7690" font-size="7.5" text-anchor="middle" font-weight="normal" font-family="monospace">4</text>
<line x1="204" y1="60" x2="204" y2="480" stroke="#161c2c" stroke-width="0.9"/>
<line x1="234" y1="60" x2="234" y2="480" stroke="#161c2c" stroke-width="0.4"/>
<text x="249.0" y="494.0" fill="#6a7690" font-size="7.5" text-anchor="middle" font-weight="normal" font-family="monospace">6</text>
<line x1="264" y1="60" x2="264" y2="480" stroke="#161c2c" stroke-width="0.4"/>
<line x1="294" y1="60" x2="294" y2="480" stroke="#161c2c" stroke-width="0.4"/>
<text x="309.0" y="494.0" fill="#6a7690" font-size="7.5" text-anchor="middle" font-weight="normal" font-family="monospace">8</text>
<line x1="324" y1="60" x2="324" y2="480" stroke="#161c2c" stroke-width="0.4"/>
<line x1="354" y1="60" x2="354" y2="480" stroke="#161c2c" stroke-width="0.9"/>
<text x="369.0" y="494.0" fill="#6a7690" font-size="7.5" text-anchor="middle" font-weight="normal" font-family="monospace">10</text>
<line x1="384" y1="60" x2="384" y2="480" stroke="#161c2c" stroke-width="0.4"/>
<line x1="414" y1="60" x2="414" y2="480" stroke="#161c2c" stroke-width="0.4"/>
<text x="429.0" y="494.0" fill="#6a7690" font-size="7.5" text-anchor="middle" font-weight="normal" font-family="monospace">12</text>
<line x1="444" y1="60" x2="444" y2="480" stroke="#161c2c" stroke-width="0.4"/>
<line x1="474" y1="60" x2="474" y2="480" stroke="#161c2c" stroke-width="0.4"/>
<text x="489.0" y="494.0" fill="#6a7690" font-size="7.5" text-anchor="middle" font-weight="normal" font-family="monospace">14</text>
<line x1="504" y1="60" x2="504" y2="480" stroke="#161c2c" stroke-width="0.9"/>
<line x1="534" y1="60" x2="534" y2="480" stroke="#161c2c" stroke-width="0.4"/>
<text x="549.0" y="494.0" fill="#6a7690" font-size="7.5" text-anchor="middle" font-weight="normal" font-family="monospace">16</text>
<line x1="564" y1="60" x2="564" y2="480" stroke="#161c2c" stroke-width="0.4"/>
<line x1="594" y1="60" x2="594" y2="480" stroke="#161c2c" stroke-width="0.4"/>
<text x="609.0" y="494.0" fill="#6a7690" font-size="7.5" text-anchor="middle" font-weight="normal" font-family="monospace">18</text>
<line x1="624" y1="60" x2="624" y2="480" stroke="#161c2c" stroke-width="0.4"/>
<line x1="654" y1="60" x2="654" y2="480" stroke="#161c2c" stroke-width="0.9"/>
<text x="669.0" y="494.0" fill="#6a7690" font-size="7.5" text-anchor="middle" font-weight="normal" font-family="monospace">20</text>
<line x1="684" y1="60" x2="684" y2="480" stroke="#161c2c" stroke-width="0.4"/>
<line x1="714" y1="60" x2="714" y2="480" stroke="#161c2c" stroke-width="0.4"/>
<text x="729.0" y="494.0" fill="#6a7690" font-size="7.5" text-anchor="middle" font-weight="normal" font-family="monospace">22</text>
<line x1="744" y1="60" x2="744" y2="480" stroke="#161c2c" stroke-width="0.4"/>
<line x1="774" y1="60" x2="774" y2="480" stroke="#161c2c" stroke-width="0.4"/>
<text x="789.0" y="494.0" fill="#6a7690" font-size="7.5" text-anchor="middle" font-weight="normal" font-family="monospace">24</text>
<line x1="804" y1="60" x2="804" y2="480" stroke="#161c2c" stroke-width="0.9"/>
<line x1="834" y1="60" x2="834" y2="480" stroke="#161c2c" stroke-width="0.4"/>
<text x="849.0" y="494.0" fill="#6a7690" font-size="7.5" text-anchor="middle" font-weight="normal" font-family="monospace">26</text>
<line x1="864" y1="60" x2="864" y2="480" stroke="#161c2c" stroke-width="0.4"/>
<line x1="894" y1="60" x2="894" y2="480" stroke="#161c2c" stroke-width="0.4"/>
<text x="909.0" y="494.0" fill="#6a7690" font-size="7.5" text-anchor="middle" font-weight="normal" font-family="monospace">28</text>
<line x1="924" y1="60" x2="924" y2="480" stroke="#161c2c" stroke-width="0.4"/>
<line x1="954" y1="60" x2="954" y2="480" stroke="#161c2c" stroke-width="0.9"/>
<text x="969.0" y="494.0" fill="#6a7690" font-size="7.5" text-anchor="middle" font-weight="normal" font-family="monospace">30</text>
<line x1="984" y1="60" x2="984" y2="480" stroke="#161c2c" stroke-width="0.4"/>
<line x1="54" y1="60" x2="984" y2="60" stroke="#161c2c" stroke-width="0.9"/>
<text x="48.0" y="468.0" fill="#6a7690" font-size="7.5" text-anchor="end" font-weight="normal" font-family="monospace">0</text>
<line x1="54" y1="90" x2="984" y2="90" stroke="#161c2c" stroke-width="0.4"/>
<line x1="54" y1="120" x2="984" y2="120" stroke="#161c2c" stroke-width="0.4"/>
<text x="48.0" y="408.0" fill="#6a7690" font-size="7.5" text-anchor="end" font-weight="normal" font-family="monospace">2</text>
<line x1="54" y1="150" x2="984" y2="150" stroke="#161c2c" stroke-width="0.4"/>
<line x1="54" y1="180" x2="984" y2="180" stroke="#161c2c" stroke-width="0.4"/>
<text x="48.0" y="348.0" fill="#6a7690" font-size="7.5" text-anchor="end" font-weight="normal" font-family="monospace">4</text>
<line x1="54" y1="210" x2="984" y2="210" stroke="#161c2c" stroke-width="0.9"/>
<line x1="54" y1="240" x2="984" y2="240" stroke="#161c2c" stroke-width="0.4"/>
<text x="48.0" y="288.0" fill="#6a7690" font-size="7.5" text-anchor="end" font-weight="normal" font-family="monospace">6</text>
<line x1="54" y1="270" x2="984" y2="270" stroke="#161c2c" stroke-width="0.4"/>
<line x1="54" y1="300" x2="984" y2="300" stroke="#161c2c" stroke-width="0.4"/>
<text x="48.0" y="228.0" fill="#6a7690" font-size="7.5" text-anchor="end" font-weight="normal" font-family="monospace">8</text>
<line x1="54" y1="330" x2="984" y2="330" stroke="#161c2c" stroke-width="0.4"/>
<line x1="54" y1="360" x2="984" y2="360" stroke="#161c2c" stroke-width="0.9"/>
<text x="48.0" y="168.0" fill="#6a7690" font-size="7.5" text-anchor="end" font-weight="normal" font-family="monospace">10</text>
<line x1="54" y1="390" x2="984" y2="390" stroke="#161c2c" stroke-width="0.4"/>
<line x1="54" y1="420" x2="984" y2="420" stroke="#161c2c" stroke-width="0.4"/>
<text x="48.0" y="108.0" fill="#6a7690" font-size="7.5" text-anchor="end" font-weight="normal" font-family="monospace">12</text>
<line x1="54" y1="450" x2="984" y2="450" stroke="#161c2c" stroke-width="0.4"/>
<line x1="54" y1="480" x2="984" y2="480" stroke="#161c2c" stroke-width="0.4"/>
<marker id="mA" markerWidth="7" markerHeight="7" refX="5.5" refY="3.2" orient="auto-start-reverse"><path d="M0,0 L7,3.2 L0,6.4 Z" fill="#5fd9ff"/></marker>
<marker id="mB" markerWidth="7" markerHeight="7" refX="5.5" refY="3.2" orient="auto-start-reverse"><path d="M0,0 L7,3.2 L0,6.4 Z" fill="#ffae5c"/></marker>
<marker id="mM" markerWidth="7" markerHeight="7" refX="5.5" refY="3.2" orient="auto-start-reverse"><path d="M0,0 L7,3.2 L0,6.4 Z" fill="#ffd24a"/></marker>
<rect x="54" y="450" width="30" height="30" fill="#3a3026" stroke="#4a3d2e" stroke-width="0.3"/>
<rect x="84" y="450" width="30" height="30" fill="#3a3026" stroke="#4a3d2e" stroke-width="0.3"/>
<rect x="114" y="450" width="30" height="30" fill="#3a3026" stroke="#4a3d2e" stroke-width="0.3"/>
<rect x="144" y="450" width="30" height="30" fill="#3a3026" stroke="#4a3d2e" stroke-width="0.3"/>
<rect x="174" y="450" width="30" height="30" fill="#3a3026" stroke="#4a3d2e" stroke-width="0.3"/>
<rect x="204" y="450" width="30" height="30" fill="#3a3026" stroke="#4a3d2e" stroke-width="0.3"/>
<rect x="234" y="450" width="30" height="30" fill="#3a3026" stroke="#4a3d2e" stroke-width="0.3"/>
<rect x="264" y="450" width="30" height="30" fill="#3a3026" stroke="#4a3d2e" stroke-width="0.3"/>
<rect x="294" y="450" width="30" height="30" fill="#3a3026" stroke="#4a3d2e" stroke-width="0.3"/>
<rect x="324" y="450" width="30" height="30" fill="#3a3026" stroke="#4a3d2e" stroke-width="0.3"/>
<rect x="354" y="450" width="30" height="30" fill="#3a3026" stroke="#4a3d2e" stroke-width="0.3"/>
<rect x="384" y="450" width="30" height="30" fill="#3a3026" stroke="#4a3d2e" stroke-width="0.3"/>
<rect x="414" y="450" width="30" height="30" fill="#3a3026" stroke="#4a3d2e" stroke-width="0.3"/>
<rect x="444" y="450" width="30" height="30" fill="#3a3026" stroke="#4a3d2e" stroke-width="0.3"/>
<rect x="474" y="450" width="30" height="30" fill="#3a3026" stroke="#4a3d2e" stroke-width="0.3"/>
<rect x="504" y="450" width="30" height="30" fill="#3a3026" stroke="#4a3d2e" stroke-width="0.3"/>
<rect x="534" y="450" width="30" height="30" fill="#3a3026" stroke="#4a3d2e" stroke-width="0.3"/>
<rect x="564" y="450" width="30" height="30" fill="#3a3026" stroke="#4a3d2e" stroke-width="0.3"/>
<rect x="594" y="450" width="30" height="30" fill="#3a3026" stroke="#4a3d2e" stroke-width="0.3"/>
<rect x="624" y="450" width="30" height="30" fill="#3a3026" stroke="#4a3d2e" stroke-width="0.3"/>
<rect x="654" y="450" width="30" height="30" fill="#3a3026" stroke="#4a3d2e" stroke-width="0.3"/>
<rect x="684" y="450" width="30" height="30" fill="#3a3026" stroke="#4a3d2e" stroke-width="0.3"/>
<rect x="714" y="450" width="30" height="30" fill="#3a3026" stroke="#4a3d2e" stroke-width="0.3"/>
<rect x="744" y="450" width="30" height="30" fill="#3a3026" stroke="#4a3d2e" stroke-width="0.3"/>
<rect x="774" y="450" width="30" height="30" fill="#3a3026" stroke="#4a3d2e" stroke-width="0.3"/>
<rect x="804" y="450" width="30" height="30" fill="#3a3026" stroke="#4a3d2e" stroke-width="0.3"/>
<rect x="834" y="450" width="30" height="30" fill="#3a3026" stroke="#4a3d2e" stroke-width="0.3"/>
<rect x="864" y="450" width="30" height="30" fill="#3a3026" stroke="#4a3d2e" stroke-width="0.3"/>
<rect x="894" y="450" width="30" height="30" fill="#3a3026" stroke="#4a3d2e" stroke-width="0.3"/>
<rect x="924" y="450" width="30" height="30" fill="#3a3026" stroke="#4a3d2e" stroke-width="0.3"/>
<rect x="954" y="450" width="30" height="30" fill="#3a3026" stroke="#4a3d2e" stroke-width="0.3"/>
<rect x="954" y="300" width="30" height="30" fill="#3a3026" stroke="#4a3d2e" stroke-width="0.3"/>
<rect x="954" y="270" width="30" height="30" fill="#3a3026" stroke="#4a3d2e" stroke-width="0.3"/>
<rect x="954" y="240" width="30" height="30" fill="#3a3026" stroke="#4a3d2e" stroke-width="0.3"/>
<rect x="954" y="210" width="30" height="30" fill="#3a3026" stroke="#4a3d2e" stroke-width="0.3"/>
<rect x="954" y="180" width="30" height="30" fill="#3a3026" stroke="#4a3d2e" stroke-width="0.3"/>
<rect x="954" y="150" width="30" height="30" fill="#3a3026" stroke="#4a3d2e" stroke-width="0.3"/>
<rect x="954" y="120" width="30" height="30" fill="#3a3026" stroke="#4a3d2e" stroke-width="0.3"/>
<rect x="685" y="302" width="28" height="26" rx="2" fill="#7fe0ff" fill-opacity="0.13" stroke="#7fe0ff" stroke-opacity="0.5" stroke-width="0.9"/>
<line x1="686" y1="326" x2="712" y2="326" stroke="#7fe0ff" stroke-opacity="0.8" stroke-width="1.8"/>
<rect x="715" y="302" width="28" height="26" rx="2" fill="#7fe0ff" fill-opacity="0.13" stroke="#7fe0ff" stroke-opacity="0.5" stroke-width="0.9"/>
<line x1="716" y1="326" x2="742" y2="326" stroke="#7fe0ff" stroke-opacity="0.8" stroke-width="1.8"/>
<rect x="745" y="302" width="28" height="26" rx="2" fill="#7fe0ff" fill-opacity="0.13" stroke="#7fe0ff" stroke-opacity="0.5" stroke-width="0.9"/>
<line x1="746" y1="326" x2="772" y2="326" stroke="#7fe0ff" stroke-opacity="0.8" stroke-width="1.8"/>
<rect x="775" y="302" width="28" height="26" rx="2" fill="#7fe0ff" fill-opacity="0.13" stroke="#7fe0ff" stroke-opacity="0.5" stroke-width="0.9"/>
<line x1="776" y1="326" x2="802" y2="326" stroke="#7fe0ff" stroke-opacity="0.8" stroke-width="1.8"/>
<rect x="805" y="302" width="28" height="26" rx="2" fill="#7fe0ff" fill-opacity="0.13" stroke="#7fe0ff" stroke-opacity="0.5" stroke-width="0.9"/>
<line x1="806" y1="326" x2="832" y2="326" stroke="#7fe0ff" stroke-opacity="0.8" stroke-width="1.8"/>
<rect x="325" y="302" width="28" height="26" rx="2" fill="#7fe0ff" fill-opacity="0.13" stroke="#7fe0ff" stroke-opacity="0.5" stroke-width="0.9"/>
<line x1="326" y1="326" x2="352" y2="326" stroke="#7fe0ff" stroke-opacity="0.8" stroke-width="1.8"/>
<rect x="355" y="302" width="28" height="26" rx="2" fill="#7fe0ff" fill-opacity="0.13" stroke="#7fe0ff" stroke-opacity="0.5" stroke-width="0.9"/>
<line x1="356" y1="326" x2="382" y2="326" stroke="#7fe0ff" stroke-opacity="0.8" stroke-width="1.8"/>
<rect x="385" y="302" width="28" height="26" rx="2" fill="#7fe0ff" fill-opacity="0.13" stroke="#7fe0ff" stroke-opacity="0.5" stroke-width="0.9"/>
<line x1="386" y1="326" x2="412" y2="326" stroke="#7fe0ff" stroke-opacity="0.8" stroke-width="1.8"/>
<rect x="415" y="302" width="28" height="26" rx="2" fill="#7fe0ff" fill-opacity="0.13" stroke="#7fe0ff" stroke-opacity="0.5" stroke-width="0.9"/>
<line x1="416" y1="326" x2="442" y2="326" stroke="#7fe0ff" stroke-opacity="0.8" stroke-width="1.8"/>
<rect x="445" y="302" width="28" height="26" rx="2" fill="#7fe0ff" fill-opacity="0.13" stroke="#7fe0ff" stroke-opacity="0.5" stroke-width="0.9"/>
<line x1="446" y1="326" x2="472" y2="326" stroke="#7fe0ff" stroke-opacity="0.8" stroke-width="1.8"/>
<rect x="445" y="182" width="28" height="26" rx="2" fill="#7fe0ff" fill-opacity="0.13" stroke="#7fe0ff" stroke-opacity="0.5" stroke-width="0.9"/>
<line x1="446" y1="206" x2="472" y2="206" stroke="#7fe0ff" stroke-opacity="0.8" stroke-width="1.8"/>
<rect x="475" y="182" width="28" height="26" rx="2" fill="#7fe0ff" fill-opacity="0.13" stroke="#7fe0ff" stroke-opacity="0.5" stroke-width="0.9"/>
<line x1="476" y1="206" x2="502" y2="206" stroke="#7fe0ff" stroke-opacity="0.8" stroke-width="1.8"/>
<rect x="505" y="182" width="28" height="26" rx="2" fill="#7fe0ff" fill-opacity="0.13" stroke="#7fe0ff" stroke-opacity="0.5" stroke-width="0.9"/>
<line x1="506" y1="206" x2="532" y2="206" stroke="#7fe0ff" stroke-opacity="0.8" stroke-width="1.8"/>
<rect x="535" y="182" width="28" height="26" rx="2" fill="#7fe0ff" fill-opacity="0.13" stroke="#7fe0ff" stroke-opacity="0.5" stroke-width="0.9"/>
<line x1="536" y1="206" x2="562" y2="206" stroke="#7fe0ff" stroke-opacity="0.8" stroke-width="1.8"/>
<rect x="565" y="182" width="28" height="26" rx="2" fill="#7fe0ff" fill-opacity="0.13" stroke="#7fe0ff" stroke-opacity="0.5" stroke-width="0.9"/>
<line x1="566" y1="206" x2="592" y2="206" stroke="#7fe0ff" stroke-opacity="0.8" stroke-width="1.8"/>
<rect x="445" y="362" width="28" height="26" rx="2" fill="#7fe0ff" fill-opacity="0.13" stroke="#7fe0ff" stroke-opacity="0.5" stroke-width="0.9"/>
<line x1="446" y1="386" x2="472" y2="386" stroke="#7fe0ff" stroke-opacity="0.8" stroke-width="1.8"/>
<rect x="475" y="362" width="28" height="26" rx="2" fill="#7fe0ff" fill-opacity="0.13" stroke="#7fe0ff" stroke-opacity="0.5" stroke-width="0.9"/>
<line x1="476" y1="386" x2="502" y2="386" stroke="#7fe0ff" stroke-opacity="0.8" stroke-width="1.8"/>
<rect x="505" y="362" width="28" height="26" rx="2" fill="#7fe0ff" fill-opacity="0.13" stroke="#7fe0ff" stroke-opacity="0.5" stroke-width="0.9"/>
<line x1="506" y1="386" x2="532" y2="386" stroke="#7fe0ff" stroke-opacity="0.8" stroke-width="1.8"/>
<rect x="535" y="362" width="28" height="26" rx="2" fill="#7fe0ff" fill-opacity="0.13" stroke="#7fe0ff" stroke-opacity="0.5" stroke-width="0.9"/>
<line x1="536" y1="386" x2="562" y2="386" stroke="#7fe0ff" stroke-opacity="0.8" stroke-width="1.8"/>
<rect x="565" y="362" width="28" height="26" rx="2" fill="#7fe0ff" fill-opacity="0.13" stroke="#7fe0ff" stroke-opacity="0.5" stroke-width="0.9"/>
<line x1="566" y1="386" x2="592" y2="386" stroke="#7fe0ff" stroke-opacity="0.8" stroke-width="1.8"/>
<rect x="685" y="152" width="28" height="26" rx="2" fill="#7fe0ff" fill-opacity="0.13" stroke="#7fe0ff" stroke-opacity="0.5" stroke-width="0.9"/>
<line x1="686" y1="176" x2="712" y2="176" stroke="#7fe0ff" stroke-opacity="0.8" stroke-width="1.8"/>
<rect x="715" y="152" width="28" height="26" rx="2" fill="#7fe0ff" fill-opacity="0.13" stroke="#7fe0ff" stroke-opacity="0.5" stroke-width="0.9"/>
<line x1="716" y1="176" x2="742" y2="176" stroke="#7fe0ff" stroke-opacity="0.8" stroke-width="1.8"/>
<rect x="745" y="152" width="28" height="26" rx="2" fill="#7fe0ff" fill-opacity="0.13" stroke="#7fe0ff" stroke-opacity="0.5" stroke-width="0.9"/>
<line x1="746" y1="176" x2="772" y2="176" stroke="#7fe0ff" stroke-opacity="0.8" stroke-width="1.8"/>
<rect x="775" y="152" width="28" height="26" rx="2" fill="#7fe0ff" fill-opacity="0.13" stroke="#7fe0ff" stroke-opacity="0.5" stroke-width="0.9"/>
<line x1="776" y1="176" x2="802" y2="176" stroke="#7fe0ff" stroke-opacity="0.8" stroke-width="1.8"/>
<rect x="805" y="152" width="28" height="26" rx="2" fill="#7fe0ff" fill-opacity="0.13" stroke="#7fe0ff" stroke-opacity="0.5" stroke-width="0.9"/>
<line x1="806" y1="176" x2="832" y2="176" stroke="#7fe0ff" stroke-opacity="0.8" stroke-width="1.8"/>
<rect x="955" y="421" width="28" height="28" fill="#ffd700" fill-opacity="0.13" stroke="#ffd700" stroke-width="1.2" stroke-dasharray="3,2"/>
<rect x="955" y="391" width="28" height="28" fill="#ffd700" fill-opacity="0.13" stroke="#ffd700" stroke-width="1.2" stroke-dasharray="3,2"/>
<rect x="955" y="361" width="28" height="28" fill="#ffd700" fill-opacity="0.13" stroke="#ffd700" stroke-width="1.2" stroke-dasharray="3,2"/>
<line x1="960.1" y1="83.9" x2="767.9" y2="276.1" stroke="#ffd24a" stroke-width="2.4" marker-end="url(#mM)" opacity="0.95"/>
<line x1="746.4" y1="285.0" x2="411.6" y2="285.0" stroke="#ffd24a" stroke-width="2.4" marker-end="url(#mM)" opacity="0.95"/>
<line x1="407.9" y1="276.1" x2="510.1" y2="173.9" stroke="#ffd24a" stroke-width="2.4" marker-end="url(#mM)" opacity="0.95"/>
<line x1="519.0" y1="177.6" x2="519.0" y2="332.4" stroke="#ffd24a" stroke-width="2.4" marker-end="url(#mM)" opacity="0.95"/>
<line x1="531.6" y1="345.0" x2="956.4" y2="345.0" stroke="#ffd24a" stroke-width="2.4" marker-end="url(#mM)" opacity="0.95"/>
<rect x="748" y="274" width="22" height="22" rx="2" fill="#5fd9ff" fill-opacity="0.3" stroke="#5fd9ff" stroke-width="1.4"/>
<line x1="749.0" y1="289.1" x2="769.0" y2="280.9" stroke="#5fd9ff" stroke-width="2"/>
<text x="759.0" y="272.2" fill="#5fd9ff" font-size="7" text-anchor="middle" font-weight="bold" font-family="monospace">M1</text>
<text x="759.0" y="304.8" fill="#7a8aa0" font-size="6.5" text-anchor="middle" font-weight="normal" font-family="monospace">247.5°</text>
<rect x="388" y="274" width="22" height="22" rx="2" fill="#5fd9ff" fill-opacity="0.3" stroke="#5fd9ff" stroke-width="1.4"/>
<line x1="394.9" y1="275.0" x2="403.1" y2="295.0" stroke="#5fd9ff" stroke-width="2"/>
<text x="399.0" y="272.2" fill="#5fd9ff" font-size="7" text-anchor="middle" font-weight="bold" font-family="monospace">M2</text>
<text x="399.0" y="304.8" fill="#7a8aa0" font-size="6.5" text-anchor="middle" font-weight="normal" font-family="monospace">337.5°</text>
<rect x="508" y="154" width="22" height="22" rx="2" fill="#5fd9ff" fill-opacity="0.3" stroke="#5fd9ff" stroke-width="1.4"/>
<line x1="529.0" y1="169.1" x2="509.0" y2="160.9" stroke="#5fd9ff" stroke-width="2"/>
<text x="519.0" y="152.2" fill="#5fd9ff" font-size="7" text-anchor="middle" font-weight="bold" font-family="monospace">M3</text>
<text x="519.0" y="184.8" fill="#7a8aa0" font-size="6.5" text-anchor="middle" font-weight="normal" font-family="monospace">112.5°</text>
<rect x="508" y="334" width="22" height="22" rx="2" fill="#5fd9ff" fill-opacity="0.3" stroke="#5fd9ff" stroke-width="1.4"/>
<line x1="511.4" y1="337.4" x2="526.6" y2="352.6" stroke="#5fd9ff" stroke-width="2"/>
<text x="519.0" y="332.2" fill="#5fd9ff" font-size="7" text-anchor="middle" font-weight="bold" font-family="monospace">M4</text>
<text x="519.0" y="364.8" fill="#7a8aa0" font-size="6.5" text-anchor="middle" font-weight="normal" font-family="monospace">315°</text>
<rect x="749" y="125" width="20" height="20" rx="2" fill="none" stroke="#ff6b6b" stroke-width="1.4" stroke-dasharray="3,2"/>
<text x="759.0" y="122.8" fill="#ff6b6b" font-size="7" text-anchor="middle" font-weight="bold" font-family="monospace">오답A</text>
<circle cx="969" cy="75" r="9" fill="#ffd24a" stroke="#fff0b0" stroke-width="1.6"/>
<text x="969.0" y="60.0" fill="#ffd24a" font-size="7.5" text-anchor="middle" font-weight="bold" font-family="monospace">소스↙</text>
<rect x="957" y="333" width="24" height="24" rx="2" fill="#0a0c14" stroke="#ffd700" stroke-width="1.8"/><circle cx="969" cy="345" r="7" fill="#ffd700"/>
<text x="969.0" y="363.6" fill="#ffd700" font-size="7.5" text-anchor="middle" font-weight="bold" font-family="monospace">게이트</text>
<circle cx="129" cy="432" r="8" fill="#ff5fa2" stroke="#ffd0e4" stroke-width="1.4"/>
<text x="129.0" y="450.0" fill="#ff5fa2" font-size="7.5" text-anchor="middle" font-weight="bold" font-family="monospace">스폰</text>
<text x="507.0" y="28.0" fill="#dfe8f5" font-size="13" text-anchor="middle" font-weight="bold" font-family="monospace">Stage 02 — 다중 반사 + 함정</text>
<text x="507.0" y="45.0" fill="#8a98a8" font-size="9" text-anchor="middle" font-weight="normal" font-family="monospace">소스↙→M1→M2→M3→M4→게이트 · 발판=각 거울 밑 · 오답A 격리 · 0°=동쪽/CW</text>
</svg>