<svg width="100%" viewBox="0 0 1404 602" xmlns="http://www.w3.org/2000/svg" font-family="monospace"><rect width="1404" height="602" fill="#0a0c14"/>
<rect x="54" y="60" width="1320" height="450" fill="#0e1320" stroke="#2a3550" stroke-width="1.5"/>
<line x1="54" y1="60" x2="54" y2="510" stroke="#161c2c" stroke-width="0.9"/>
<text x="69.0" y="524.0" fill="#6a7690" font-size="7.5" text-anchor="middle" font-weight="normal" font-family="monospace">0</text>
<line x1="84" y1="60" x2="84" y2="510" stroke="#161c2c" stroke-width="0.4"/>
<line x1="114" y1="60" x2="114" y2="510" stroke="#161c2c" stroke-width="0.4"/>
<line x1="144" y1="60" x2="144" y2="510" stroke="#161c2c" stroke-width="0.4"/>
<line x1="174" y1="60" x2="174" y2="510" stroke="#161c2c" stroke-width="0.4"/>
<line x1="204" y1="60" x2="204" y2="510" stroke="#161c2c" stroke-width="0.9"/>
<text x="219.0" y="524.0" fill="#6a7690" font-size="7.5" text-anchor="middle" font-weight="normal" font-family="monospace">5</text>
<line x1="234" y1="60" x2="234" y2="510" stroke="#161c2c" stroke-width="0.4"/>
<line x1="264" y1="60" x2="264" y2="510" stroke="#161c2c" stroke-width="0.4"/>
<line x1="294" y1="60" x2="294" y2="510" stroke="#161c2c" stroke-width="0.4"/>
<line x1="324" y1="60" x2="324" y2="510" stroke="#161c2c" stroke-width="0.4"/>
<line x1="354" y1="60" x2="354" y2="510" stroke="#161c2c" stroke-width="0.9"/>
<text x="369.0" y="524.0" fill="#6a7690" font-size="7.5" text-anchor="middle" font-weight="normal" font-family="monospace">10</text>
<line x1="384" y1="60" x2="384" y2="510" stroke="#161c2c" stroke-width="0.4"/>
<line x1="414" y1="60" x2="414" y2="510" stroke="#161c2c" stroke-width="0.4"/>
<line x1="444" y1="60" x2="444" y2="510" stroke="#161c2c" stroke-width="0.4"/>
<line x1="474" y1="60" x2="474" y2="510" stroke="#161c2c" stroke-width="0.4"/>
<line x1="504" y1="60" x2="504" y2="510" stroke="#161c2c" stroke-width="0.9"/>
<text x="519.0" y="524.0" fill="#6a7690" font-size="7.5" text-anchor="middle" font-weight="normal" font-family="monospace">15</text>
<line x1="534" y1="60" x2="534" y2="510" stroke="#161c2c" stroke-width="0.4"/>
<line x1="564" y1="60" x2="564" y2="510" stroke="#161c2c" stroke-width="0.4"/>
<line x1="594" y1="60" x2="594" y2="510" stroke="#161c2c" stroke-width="0.4"/>
<line x1="624" y1="60" x2="624" y2="510" stroke="#161c2c" stroke-width="0.4"/>
<line x1="654" y1="60" x2="654" y2="510" stroke="#161c2c" stroke-width="0.9"/>
<text x="669.0" y="524.0" fill="#6a7690" font-size="7.5" text-anchor="middle" font-weight="normal" font-family="monospace">20</text>
<line x1="684" y1="60" x2="684" y2="510" stroke="#161c2c" stroke-width="0.4"/>
<line x1="714" y1="60" x2="714" y2="510" stroke="#161c2c" stroke-width="0.4"/>
<line x1="744" y1="60" x2="744" y2="510" stroke="#161c2c" stroke-width="0.4"/>
<line x1="774" y1="60" x2="774" y2="510" stroke="#161c2c" stroke-width="0.4"/>
<line x1="804" y1="60" x2="804" y2="510" stroke="#161c2c" stroke-width="0.9"/>
<text x="819.0" y="524.0" fill="#6a7690" font-size="7.5" text-anchor="middle" font-weight="normal" font-family="monospace">25</text>
<line x1="834" y1="60" x2="834" y2="510" stroke="#161c2c" stroke-width="0.4"/>
<line x1="864" y1="60" x2="864" y2="510" stroke="#161c2c" stroke-width="0.4"/>
<line x1="894" y1="60" x2="894" y2="510" stroke="#161c2c" stroke-width="0.4"/>
<line x1="924" y1="60" x2="924" y2="510" stroke="#161c2c" stroke-width="0.4"/>
<line x1="954" y1="60" x2="954" y2="510" stroke="#161c2c" stroke-width="0.9"/>
<text x="969.0" y="524.0" fill="#6a7690" font-size="7.5" text-anchor="middle" font-weight="normal" font-family="monospace">30</text>
<line x1="984" y1="60" x2="984" y2="510" stroke="#161c2c" stroke-width="0.4"/>
<line x1="1014" y1="60" x2="1014" y2="510" stroke="#161c2c" stroke-width="0.4"/>
<line x1="1044" y1="60" x2="1044" y2="510" stroke="#161c2c" stroke-width="0.4"/>
<line x1="1074" y1="60" x2="1074" y2="510" stroke="#161c2c" stroke-width="0.4"/>
<line x1="1104" y1="60" x2="1104" y2="510" stroke="#161c2c" stroke-width="0.9"/>
<text x="1119.0" y="524.0" fill="#6a7690" font-size="7.5" text-anchor="middle" font-weight="normal" font-family="monospace">35</text>
<line x1="1134" y1="60" x2="1134" y2="510" stroke="#161c2c" stroke-width="0.4"/>
<line x1="1164" y1="60" x2="1164" y2="510" stroke="#161c2c" stroke-width="0.4"/>
<line x1="1194" y1="60" x2="1194" y2="510" stroke="#161c2c" stroke-width="0.4"/>
<line x1="1224" y1="60" x2="1224" y2="510" stroke="#161c2c" stroke-width="0.4"/>
<line x1="1254" y1="60" x2="1254" y2="510" stroke="#161c2c" stroke-width="0.9"/>
<text x="1269.0" y="524.0" fill="#6a7690" font-size="7.5" text-anchor="middle" font-weight="normal" font-family="monospace">40</text>
<line x1="1284" y1="60" x2="1284" y2="510" stroke="#161c2c" stroke-width="0.4"/>
<line x1="1314" y1="60" x2="1314" y2="510" stroke="#161c2c" stroke-width="0.4"/>
<line x1="1344" y1="60" x2="1344" y2="510" stroke="#161c2c" stroke-width="0.4"/>
<line x1="1374" y1="60" x2="1374" y2="510" stroke="#161c2c" stroke-width="0.4"/>
<line x1="54" y1="60" x2="1374" y2="60" stroke="#161c2c" stroke-width="0.9"/>
<text x="48.0" y="498.0" fill="#6a7690" font-size="7.5" text-anchor="end" font-weight="normal" font-family="monospace">0</text>
<line x1="54" y1="90" x2="1374" y2="90" stroke="#161c2c" stroke-width="0.4"/>
<line x1="54" y1="120" x2="1374" y2="120" stroke="#161c2c" stroke-width="0.4"/>
<text x="48.0" y="438.0" fill="#6a7690" font-size="7.5" text-anchor="end" font-weight="normal" font-family="monospace">2</text>
<line x1="54" y1="150" x2="1374" y2="150" stroke="#161c2c" stroke-width="0.4"/>
<line x1="54" y1="180" x2="1374" y2="180" stroke="#161c2c" stroke-width="0.4"/>
<text x="48.0" y="378.0" fill="#6a7690" font-size="7.5" text-anchor="end" font-weight="normal" font-family="monospace">4</text>
<line x1="54" y1="210" x2="1374" y2="210" stroke="#161c2c" stroke-width="0.9"/>
<line x1="54" y1="240" x2="1374" y2="240" stroke="#161c2c" stroke-width="0.4"/>
<text x="48.0" y="318.0" fill="#6a7690" font-size="7.5" text-anchor="end" font-weight="normal" font-family="monospace">6</text>
<line x1="54" y1="270" x2="1374" y2="270" stroke="#161c2c" stroke-width="0.4"/>
<line x1="54" y1="300" x2="1374" y2="300" stroke="#161c2c" stroke-width="0.4"/>
<text x="48.0" y="258.0" fill="#6a7690" font-size="7.5" text-anchor="end" font-weight="normal" font-family="monospace">8</text>
<line x1="54" y1="330" x2="1374" y2="330" stroke="#161c2c" stroke-width="0.4"/>
<line x1="54" y1="360" x2="1374" y2="360" stroke="#161c2c" stroke-width="0.9"/>
<text x="48.0" y="198.0" fill="#6a7690" font-size="7.5" text-anchor="end" font-weight="normal" font-family="monospace">10</text>
<line x1="54" y1="390" x2="1374" y2="390" stroke="#161c2c" stroke-width="0.4"/>
<line x1="54" y1="420" x2="1374" y2="420" stroke="#161c2c" stroke-width="0.4"/>
<text x="48.0" y="138.0" fill="#6a7690" font-size="7.5" text-anchor="end" font-weight="normal" font-family="monospace">12</text>
<line x1="54" y1="450" x2="1374" y2="450" stroke="#161c2c" stroke-width="0.4"/>
<line x1="54" y1="480" x2="1374" y2="480" stroke="#161c2c" stroke-width="0.4"/>
<text x="48.0" y="78.0" fill="#6a7690" font-size="7.5" text-anchor="end" font-weight="normal" font-family="monospace">14</text>
<line x1="54" y1="510" x2="1374" y2="510" stroke="#161c2c" stroke-width="0.9"/>
<marker id="mA" markerWidth="7" markerHeight="7" refX="5.5" refY="3.2" orient="auto-start-reverse"><path d="M0,0 L7,3.2 L0,6.4 Z" fill="#5fd9ff"/></marker>
<marker id="mB" markerWidth="7" markerHeight="7" refX="5.5" refY="3.2" orient="auto-start-reverse"><path d="M0,0 L7,3.2 L0,6.4 Z" fill="#ffae5c"/></marker>
<marker id="mM" markerWidth="7" markerHeight="7" refX="5.5" refY="3.2" orient="auto-start-reverse"><path d="M0,0 L7,3.2 L0,6.4 Z" fill="#ffd24a"/></marker>
<rect x="54" y="480" width="30" height="30" fill="#3a3026" stroke="#4a3d2e" stroke-width="0.3"/>
<rect x="54" y="450" width="30" height="30" fill="#3a3026" stroke="#4a3d2e" stroke-width="0.3"/>
<rect x="84" y="480" width="30" height="30" fill="#3a3026" stroke="#4a3d2e" stroke-width="0.3"/>
<rect x="84" y="450" width="30" height="30" fill="#3a3026" stroke="#4a3d2e" stroke-width="0.3"/>
<rect x="114" y="480" width="30" height="30" fill="#3a3026" stroke="#4a3d2e" stroke-width="0.3"/>
<rect x="114" y="450" width="30" height="30" fill="#3a3026" stroke="#4a3d2e" stroke-width="0.3"/>
<rect x="144" y="480" width="30" height="30" fill="#3a3026" stroke="#4a3d2e" stroke-width="0.3"/>
<rect x="144" y="450" width="30" height="30" fill="#3a3026" stroke="#4a3d2e" stroke-width="0.3"/>
<rect x="174" y="480" width="30" height="30" fill="#3a3026" stroke="#4a3d2e" stroke-width="0.3"/>
<rect x="174" y="450" width="30" height="30" fill="#3a3026" stroke="#4a3d2e" stroke-width="0.3"/>
<rect x="204" y="480" width="30" height="30" fill="#3a3026" stroke="#4a3d2e" stroke-width="0.3"/>
<rect x="204" y="450" width="30" height="30" fill="#3a3026" stroke="#4a3d2e" stroke-width="0.3"/>
<rect x="234" y="480" width="30" height="30" fill="#3a3026" stroke="#4a3d2e" stroke-width="0.3"/>
<rect x="234" y="450" width="30" height="30" fill="#3a3026" stroke="#4a3d2e" stroke-width="0.3"/>
<rect x="264" y="480" width="30" height="30" fill="#3a3026" stroke="#4a3d2e" stroke-width="0.3"/>
<rect x="264" y="450" width="30" height="30" fill="#3a3026" stroke="#4a3d2e" stroke-width="0.3"/>
<rect x="294" y="480" width="30" height="30" fill="#3a3026" stroke="#4a3d2e" stroke-width="0.3"/>
<rect x="294" y="450" width="30" height="30" fill="#3a3026" stroke="#4a3d2e" stroke-width="0.3"/>
<rect x="324" y="480" width="30" height="30" fill="#3a3026" stroke="#4a3d2e" stroke-width="0.3"/>
<rect x="324" y="450" width="30" height="30" fill="#3a3026" stroke="#4a3d2e" stroke-width="0.3"/>
<rect x="354" y="480" width="30" height="30" fill="#3a3026" stroke="#4a3d2e" stroke-width="0.3"/>
<rect x="354" y="450" width="30" height="30" fill="#3a3026" stroke="#4a3d2e" stroke-width="0.3"/>
<rect x="384" y="480" width="30" height="30" fill="#3a3026" stroke="#4a3d2e" stroke-width="0.3"/>
<rect x="384" y="450" width="30" height="30" fill="#3a3026" stroke="#4a3d2e" stroke-width="0.3"/>
<rect x="414" y="480" width="30" height="30" fill="#3a3026" stroke="#4a3d2e" stroke-width="0.3"/>
<rect x="414" y="450" width="30" height="30" fill="#3a3026" stroke="#4a3d2e" stroke-width="0.3"/>
<rect x="444" y="480" width="30" height="30" fill="#3a3026" stroke="#4a3d2e" stroke-width="0.3"/>
<rect x="444" y="450" width="30" height="30" fill="#3a3026" stroke="#4a3d2e" stroke-width="0.3"/>
<rect x="474" y="480" width="30" height="30" fill="#3a3026" stroke="#4a3d2e" stroke-width="0.3"/>
<rect x="474" y="450" width="30" height="30" fill="#3a3026" stroke="#4a3d2e" stroke-width="0.3"/>
<rect x="504" y="480" width="30" height="30" fill="#3a3026" stroke="#4a3d2e" stroke-width="0.3"/>
<rect x="504" y="450" width="30" height="30" fill="#3a3026" stroke="#4a3d2e" stroke-width="0.3"/>
<rect x="534" y="480" width="30" height="30" fill="#3a3026" stroke="#4a3d2e" stroke-width="0.3"/>
<rect x="534" y="450" width="30" height="30" fill="#3a3026" stroke="#4a3d2e" stroke-width="0.3"/>
<rect x="564" y="480" width="30" height="30" fill="#3a3026" stroke="#4a3d2e" stroke-width="0.3"/>
<rect x="564" y="450" width="30" height="30" fill="#3a3026" stroke="#4a3d2e" stroke-width="0.3"/>
<rect x="594" y="480" width="30" height="30" fill="#3a3026" stroke="#4a3d2e" stroke-width="0.3"/>
<rect x="624" y="480" width="30" height="30" fill="#3a3026" stroke="#4a3d2e" stroke-width="0.3"/>
<rect x="654" y="480" width="30" height="30" fill="#3a3026" stroke="#4a3d2e" stroke-width="0.3"/>
<rect x="684" y="480" width="30" height="30" fill="#3a3026" stroke="#4a3d2e" stroke-width="0.3"/>
<rect x="714" y="480" width="30" height="30" fill="#3a3026" stroke="#4a3d2e" stroke-width="0.3"/>
<rect x="744" y="480" width="30" height="30" fill="#3a3026" stroke="#4a3d2e" stroke-width="0.3"/>
<rect x="774" y="480" width="30" height="30" fill="#3a3026" stroke="#4a3d2e" stroke-width="0.3"/>
<rect x="804" y="480" width="30" height="30" fill="#3a3026" stroke="#4a3d2e" stroke-width="0.3"/>
<rect x="834" y="480" width="30" height="30" fill="#3a3026" stroke="#4a3d2e" stroke-width="0.3"/>
<rect x="864" y="480" width="30" height="30" fill="#3a3026" stroke="#4a3d2e" stroke-width="0.3"/>
<rect x="894" y="480" width="30" height="30" fill="#3a3026" stroke="#4a3d2e" stroke-width="0.3"/>
<rect x="924" y="480" width="30" height="30" fill="#3a3026" stroke="#4a3d2e" stroke-width="0.3"/>
<rect x="954" y="480" width="30" height="30" fill="#3a3026" stroke="#4a3d2e" stroke-width="0.3"/>
<rect x="984" y="480" width="30" height="30" fill="#3a3026" stroke="#4a3d2e" stroke-width="0.3"/>
<rect x="1014" y="480" width="30" height="30" fill="#3a3026" stroke="#4a3d2e" stroke-width="0.3"/>
<rect x="1044" y="480" width="30" height="30" fill="#3a3026" stroke="#4a3d2e" stroke-width="0.3"/>
<rect x="1074" y="480" width="30" height="30" fill="#3a3026" stroke="#4a3d2e" stroke-width="0.3"/>
<rect x="1104" y="480" width="30" height="30" fill="#3a3026" stroke="#4a3d2e" stroke-width="0.3"/>
<rect x="1134" y="480" width="30" height="30" fill="#3a3026" stroke="#4a3d2e" stroke-width="0.3"/>
<rect x="1164" y="480" width="30" height="30" fill="#3a3026" stroke="#4a3d2e" stroke-width="0.3"/>
<rect x="1194" y="480" width="30" height="30" fill="#3a3026" stroke="#4a3d2e" stroke-width="0.3"/>
<rect x="1224" y="480" width="30" height="30" fill="#3a3026" stroke="#4a3d2e" stroke-width="0.3"/>
<rect x="1254" y="480" width="30" height="30" fill="#3a3026" stroke="#4a3d2e" stroke-width="0.3"/>
<rect x="1284" y="480" width="30" height="30" fill="#3a3026" stroke="#4a3d2e" stroke-width="0.3"/>
<rect x="1314" y="480" width="30" height="30" fill="#3a3026" stroke="#4a3d2e" stroke-width="0.3"/>
<rect x="1344" y="480" width="30" height="30" fill="#3a3026" stroke="#4a3d2e" stroke-width="0.3"/>
<rect x="625" y="212" width="28" height="26" rx="2" fill="#7fe0ff" fill-opacity="0.13" stroke="#7fe0ff" stroke-opacity="0.5" stroke-width="0.9"/>
<line x1="626" y1="236" x2="652" y2="236" stroke="#7fe0ff" stroke-opacity="0.8" stroke-width="1.8"/>
<rect x="655" y="212" width="28" height="26" rx="2" fill="#7fe0ff" fill-opacity="0.13" stroke="#7fe0ff" stroke-opacity="0.5" stroke-width="0.9"/>
<line x1="656" y1="236" x2="682" y2="236" stroke="#7fe0ff" stroke-opacity="0.8" stroke-width="1.8"/>
<rect x="685" y="212" width="28" height="26" rx="2" fill="#7fe0ff" fill-opacity="0.13" stroke="#7fe0ff" stroke-opacity="0.5" stroke-width="0.9"/>
<line x1="686" y1="236" x2="712" y2="236" stroke="#7fe0ff" stroke-opacity="0.8" stroke-width="1.8"/>
<rect x="715" y="212" width="28" height="26" rx="2" fill="#7fe0ff" fill-opacity="0.13" stroke="#7fe0ff" stroke-opacity="0.5" stroke-width="0.9"/>
<line x1="716" y1="236" x2="742" y2="236" stroke="#7fe0ff" stroke-opacity="0.8" stroke-width="1.8"/>
<rect x="745" y="212" width="28" height="26" rx="2" fill="#7fe0ff" fill-opacity="0.13" stroke="#7fe0ff" stroke-opacity="0.5" stroke-width="0.9"/>
<line x1="746" y1="236" x2="772" y2="236" stroke="#7fe0ff" stroke-opacity="0.8" stroke-width="1.8"/>
<rect x="265" y="122" width="28" height="26" rx="2" fill="#7fe0ff" fill-opacity="0.13" stroke="#7fe0ff" stroke-opacity="0.5" stroke-width="0.9"/>
<line x1="266" y1="146" x2="292" y2="146" stroke="#7fe0ff" stroke-opacity="0.8" stroke-width="1.8"/>
<rect x="295" y="122" width="28" height="26" rx="2" fill="#7fe0ff" fill-opacity="0.13" stroke="#7fe0ff" stroke-opacity="0.5" stroke-width="0.9"/>
<line x1="296" y1="146" x2="322" y2="146" stroke="#7fe0ff" stroke-opacity="0.8" stroke-width="1.8"/>
<rect x="325" y="122" width="28" height="26" rx="2" fill="#7fe0ff" fill-opacity="0.13" stroke="#7fe0ff" stroke-opacity="0.5" stroke-width="0.9"/>
<line x1="326" y1="146" x2="352" y2="146" stroke="#7fe0ff" stroke-opacity="0.8" stroke-width="1.8"/>
<rect x="355" y="122" width="28" height="26" rx="2" fill="#7fe0ff" fill-opacity="0.13" stroke="#7fe0ff" stroke-opacity="0.5" stroke-width="0.9"/>
<line x1="356" y1="146" x2="382" y2="146" stroke="#7fe0ff" stroke-opacity="0.8" stroke-width="1.8"/>
<rect x="775" y="122" width="28" height="26" rx="2" fill="#7fe0ff" fill-opacity="0.13" stroke="#7fe0ff" stroke-opacity="0.5" stroke-width="0.9"/>
<line x1="776" y1="146" x2="802" y2="146" stroke="#7fe0ff" stroke-opacity="0.8" stroke-width="1.8"/>
<rect x="805" y="122" width="28" height="26" rx="2" fill="#7fe0ff" fill-opacity="0.13" stroke="#7fe0ff" stroke-opacity="0.5" stroke-width="0.9"/>
<line x1="806" y1="146" x2="832" y2="146" stroke="#7fe0ff" stroke-opacity="0.8" stroke-width="1.8"/>
<rect x="835" y="122" width="28" height="26" rx="2" fill="#7fe0ff" fill-opacity="0.13" stroke="#7fe0ff" stroke-opacity="0.5" stroke-width="0.9"/>
<line x1="836" y1="146" x2="862" y2="146" stroke="#7fe0ff" stroke-opacity="0.8" stroke-width="1.8"/>
<rect x="865" y="122" width="28" height="26" rx="2" fill="#7fe0ff" fill-opacity="0.13" stroke="#7fe0ff" stroke-opacity="0.5" stroke-width="0.9"/>
<line x1="866" y1="146" x2="892" y2="146" stroke="#7fe0ff" stroke-opacity="0.8" stroke-width="1.8"/>
<rect x="895" y="122" width="28" height="26" rx="2" fill="#7fe0ff" fill-opacity="0.13" stroke="#7fe0ff" stroke-opacity="0.5" stroke-width="0.9"/>
<line x1="896" y1="146" x2="922" y2="146" stroke="#7fe0ff" stroke-opacity="0.8" stroke-width="1.8"/>
<rect x="1015" y="92" width="28" height="26" rx="2" fill="#7fe0ff" fill-opacity="0.13" stroke="#7fe0ff" stroke-opacity="0.5" stroke-width="0.9"/>
<line x1="1016" y1="116" x2="1042" y2="116" stroke="#7fe0ff" stroke-opacity="0.8" stroke-width="1.8"/>
<rect x="1045" y="92" width="28" height="26" rx="2" fill="#7fe0ff" fill-opacity="0.13" stroke="#7fe0ff" stroke-opacity="0.5" stroke-width="0.9"/>
<line x1="1046" y1="116" x2="1072" y2="116" stroke="#7fe0ff" stroke-opacity="0.8" stroke-width="1.8"/>
<rect x="1075" y="92" width="28" height="26" rx="2" fill="#7fe0ff" fill-opacity="0.13" stroke="#7fe0ff" stroke-opacity="0.5" stroke-width="0.9"/>
<line x1="1076" y1="116" x2="1102" y2="116" stroke="#7fe0ff" stroke-opacity="0.8" stroke-width="1.8"/>
<rect x="1105" y="92" width="28" height="26" rx="2" fill="#7fe0ff" fill-opacity="0.13" stroke="#7fe0ff" stroke-opacity="0.5" stroke-width="0.9"/>
<line x1="1106" y1="116" x2="1132" y2="116" stroke="#7fe0ff" stroke-opacity="0.8" stroke-width="1.8"/>
<rect x="1135" y="92" width="28" height="26" rx="2" fill="#7fe0ff" fill-opacity="0.13" stroke="#7fe0ff" stroke-opacity="0.5" stroke-width="0.9"/>
<line x1="1136" y1="116" x2="1162" y2="116" stroke="#7fe0ff" stroke-opacity="0.8" stroke-width="1.8"/>
<rect x="1135" y="212" width="28" height="26" rx="2" fill="#b388ff" fill-opacity="0.13" stroke="#b388ff" stroke-opacity="0.5" stroke-width="0.9"/>
<line x1="1136" y1="236" x2="1162" y2="236" stroke="#b388ff" stroke-opacity="0.8" stroke-width="1.8"/>
<rect x="1165" y="212" width="28" height="26" rx="2" fill="#b388ff" fill-opacity="0.13" stroke="#b388ff" stroke-opacity="0.5" stroke-width="0.9"/>
<line x1="1166" y1="236" x2="1192" y2="236" stroke="#b388ff" stroke-opacity="0.8" stroke-width="1.8"/>
<rect x="1195" y="212" width="28" height="26" rx="2" fill="#b388ff" fill-opacity="0.13" stroke="#b388ff" stroke-opacity="0.5" stroke-width="0.9"/>
<line x1="1196" y1="236" x2="1222" y2="236" stroke="#b388ff" stroke-opacity="0.8" stroke-width="1.8"/>
<rect x="1225" y="212" width="28" height="26" rx="2" fill="#b388ff" fill-opacity="0.13" stroke="#b388ff" stroke-opacity="0.5" stroke-width="0.9"/>
<line x1="1226" y1="236" x2="1252" y2="236" stroke="#b388ff" stroke-opacity="0.8" stroke-width="1.8"/>
<rect x="1255" y="212" width="28" height="26" rx="2" fill="#b388ff" fill-opacity="0.13" stroke="#b388ff" stroke-opacity="0.5" stroke-width="0.9"/>
<line x1="1256" y1="236" x2="1282" y2="236" stroke="#b388ff" stroke-opacity="0.8" stroke-width="1.8"/>
<rect x="655" y="362" width="28" height="26" rx="2" fill="#7fe0ff" fill-opacity="0.13" stroke="#7fe0ff" stroke-opacity="0.5" stroke-width="0.9"/>
<line x1="656" y1="386" x2="682" y2="386" stroke="#7fe0ff" stroke-opacity="0.8" stroke-width="1.8"/>
<rect x="685" y="362" width="28" height="26" rx="2" fill="#7fe0ff" fill-opacity="0.13" stroke="#7fe0ff" stroke-opacity="0.5" stroke-width="0.9"/>
<line x1="686" y1="386" x2="712" y2="386" stroke="#7fe0ff" stroke-opacity="0.8" stroke-width="1.8"/>
<rect x="715" y="362" width="28" height="26" rx="2" fill="#7fe0ff" fill-opacity="0.13" stroke="#7fe0ff" stroke-opacity="0.5" stroke-width="0.9"/>
<line x1="716" y1="386" x2="742" y2="386" stroke="#7fe0ff" stroke-opacity="0.8" stroke-width="1.8"/>
<rect x="805" y="302" width="28" height="26" rx="2" fill="#7fe0ff" fill-opacity="0.13" stroke="#7fe0ff" stroke-opacity="0.5" stroke-width="0.9"/>
<line x1="806" y1="326" x2="832" y2="326" stroke="#7fe0ff" stroke-opacity="0.8" stroke-width="1.8"/>
<rect x="835" y="302" width="28" height="26" rx="2" fill="#7fe0ff" fill-opacity="0.13" stroke="#7fe0ff" stroke-opacity="0.5" stroke-width="0.9"/>
<line x1="836" y1="326" x2="862" y2="326" stroke="#7fe0ff" stroke-opacity="0.8" stroke-width="1.8"/>
<rect x="865" y="302" width="28" height="26" rx="2" fill="#7fe0ff" fill-opacity="0.13" stroke="#7fe0ff" stroke-opacity="0.5" stroke-width="0.9"/>
<line x1="866" y1="326" x2="892" y2="326" stroke="#7fe0ff" stroke-opacity="0.8" stroke-width="1.8"/>
<rect x="895" y="302" width="28" height="26" rx="2" fill="#7fe0ff" fill-opacity="0.13" stroke="#7fe0ff" stroke-opacity="0.5" stroke-width="0.9"/>
<line x1="896" y1="326" x2="922" y2="326" stroke="#7fe0ff" stroke-opacity="0.8" stroke-width="1.8"/>
<rect x="925" y="302" width="28" height="26" rx="2" fill="#7fe0ff" fill-opacity="0.13" stroke="#7fe0ff" stroke-opacity="0.5" stroke-width="0.9"/>
<line x1="926" y1="326" x2="952" y2="326" stroke="#7fe0ff" stroke-opacity="0.8" stroke-width="1.8"/>
<rect x="415" y="272" width="28" height="26" rx="2" fill="#7fe0ff" fill-opacity="0.13" stroke="#7fe0ff" stroke-opacity="0.5" stroke-width="0.9"/>
<line x1="416" y1="296" x2="442" y2="296" stroke="#7fe0ff" stroke-opacity="0.8" stroke-width="1.8"/>
<rect x="445" y="272" width="28" height="26" rx="2" fill="#7fe0ff" fill-opacity="0.13" stroke="#7fe0ff" stroke-opacity="0.5" stroke-width="0.9"/>
<line x1="446" y1="296" x2="472" y2="296" stroke="#7fe0ff" stroke-opacity="0.8" stroke-width="1.8"/>
<rect x="475" y="272" width="28" height="26" rx="2" fill="#7fe0ff" fill-opacity="0.13" stroke="#7fe0ff" stroke-opacity="0.5" stroke-width="0.9"/>
<line x1="476" y1="296" x2="502" y2="296" stroke="#7fe0ff" stroke-opacity="0.8" stroke-width="1.8"/>
<rect x="505" y="272" width="28" height="26" rx="2" fill="#7fe0ff" fill-opacity="0.13" stroke="#7fe0ff" stroke-opacity="0.5" stroke-width="0.9"/>
<line x1="506" y1="296" x2="532" y2="296" stroke="#7fe0ff" stroke-opacity="0.8" stroke-width="1.8"/>
<rect x="535" y="272" width="28" height="26" rx="2" fill="#7fe0ff" fill-opacity="0.13" stroke="#7fe0ff" stroke-opacity="0.5" stroke-width="0.9"/>
<line x1="536" y1="296" x2="562" y2="296" stroke="#7fe0ff" stroke-opacity="0.8" stroke-width="1.8"/>
<rect x="265" y="362" width="28" height="26" rx="2" fill="#7fe0ff" fill-opacity="0.13" stroke="#7fe0ff" stroke-opacity="0.5" stroke-width="0.9"/>
<line x1="266" y1="386" x2="292" y2="386" stroke="#7fe0ff" stroke-opacity="0.8" stroke-width="1.8"/>
<rect x="295" y="362" width="28" height="26" rx="2" fill="#7fe0ff" fill-opacity="0.13" stroke="#7fe0ff" stroke-opacity="0.5" stroke-width="0.9"/>
<line x1="296" y1="386" x2="322" y2="386" stroke="#7fe0ff" stroke-opacity="0.8" stroke-width="1.8"/>
<rect x="325" y="362" width="28" height="26" rx="2" fill="#7fe0ff" fill-opacity="0.13" stroke="#7fe0ff" stroke-opacity="0.5" stroke-width="0.9"/>
<line x1="326" y1="386" x2="352" y2="386" stroke="#7fe0ff" stroke-opacity="0.8" stroke-width="1.8"/>
<rect x="505" y="92" width="28" height="26" rx="2" fill="#7fe0ff" fill-opacity="0.13" stroke="#7fe0ff" stroke-opacity="0.5" stroke-width="0.9"/>
<line x1="506" y1="116" x2="532" y2="116" stroke="#7fe0ff" stroke-opacity="0.8" stroke-width="1.8"/>
<rect x="535" y="92" width="28" height="26" rx="2" fill="#7fe0ff" fill-opacity="0.13" stroke="#7fe0ff" stroke-opacity="0.5" stroke-width="0.9"/>
<line x1="536" y1="116" x2="562" y2="116" stroke="#7fe0ff" stroke-opacity="0.8" stroke-width="1.8"/>
<rect x="565" y="92" width="28" height="26" rx="2" fill="#7fe0ff" fill-opacity="0.13" stroke="#7fe0ff" stroke-opacity="0.5" stroke-width="0.9"/>
<line x1="566" y1="116" x2="592" y2="116" stroke="#7fe0ff" stroke-opacity="0.8" stroke-width="1.8"/>
<rect x="205" y="272" width="28" height="26" rx="2" fill="#7fe0ff" fill-opacity="0.13" stroke="#7fe0ff" stroke-opacity="0.5" stroke-width="0.9"/>
<line x1="206" y1="296" x2="232" y2="296" stroke="#7fe0ff" stroke-opacity="0.8" stroke-width="1.8"/>
<rect x="235" y="272" width="28" height="26" rx="2" fill="#7fe0ff" fill-opacity="0.13" stroke="#7fe0ff" stroke-opacity="0.5" stroke-width="0.9"/>
<line x1="236" y1="296" x2="262" y2="296" stroke="#7fe0ff" stroke-opacity="0.8" stroke-width="1.8"/>
<rect x="145" y="182" width="28" height="26" rx="2" fill="#7fe0ff" fill-opacity="0.13" stroke="#7fe0ff" stroke-opacity="0.5" stroke-width="0.9"/>
<line x1="146" y1="206" x2="172" y2="206" stroke="#7fe0ff" stroke-opacity="0.8" stroke-width="1.8"/>
<rect x="175" y="182" width="28" height="26" rx="2" fill="#7fe0ff" fill-opacity="0.13" stroke="#7fe0ff" stroke-opacity="0.5" stroke-width="0.9"/>
<line x1="176" y1="206" x2="202" y2="206" stroke="#7fe0ff" stroke-opacity="0.8" stroke-width="1.8"/>
<rect x="1105" y="481" width="28" height="28" fill="#ffd700" fill-opacity="0.13" stroke="#ffd700" stroke-width="1.2" stroke-dasharray="3,2"/>
<rect x="1135" y="481" width="28" height="28" fill="#ffd700" fill-opacity="0.13" stroke="#ffd700" stroke-width="1.2" stroke-dasharray="3,2"/>
<rect x="1165" y="481" width="28" height="28" fill="#ffd700" fill-opacity="0.13" stroke="#ffd700" stroke-width="1.2" stroke-dasharray="3,2"/>
<line x1="1196.4" y1="195.0" x2="711.6" y2="195.0" stroke="#5fd9ff" stroke-width="2.4" marker-end="url(#mA)" opacity="0.95"/>
<line x1="690.1" y1="203.9" x2="467.9" y2="426.1" stroke="#5fd9ff" stroke-width="2.4" marker-end="url(#mA)" opacity="0.95"/>
<line x1="446.4" y1="435.0" x2="201.6" y2="435.0" stroke="#5fd9ff" stroke-width="2.4" marker-end="url(#mA)" opacity="0.95"/>
<line x1="197.9" y1="426.1" x2="540.1" y2="83.9" stroke="#5fd9ff" stroke-width="2.4" marker-end="url(#mA)" opacity="0.95"/>
<line x1="557.9" y1="83.9" x2="930.1" y2="456.1" stroke="#5fd9ff" stroke-width="2.4" marker-end="url(#mA)" opacity="0.95"/>
<line x1="951.6" y1="465.0" x2="1196.4" y2="465.0" stroke="#5fd9ff" stroke-width="2.4" marker-end="url(#mA)" opacity="0.95"/>
<line x1="1200.1" y1="186.1" x2="1097.9" y2="83.9" stroke="#ffae5c" stroke-width="2.4" marker-end="url(#mB)" opacity="0.95"/>
<line x1="1080.1" y1="83.9" x2="707.9" y2="456.1" stroke="#ffae5c" stroke-width="2.4" marker-end="url(#mB)" opacity="0.95"/>
<line x1="690.1" y1="456.1" x2="347.9" y2="113.9" stroke="#ffae5c" stroke-width="2.4" marker-end="url(#mB)" opacity="0.95"/>
<line x1="351.6" y1="105.0" x2="836.4" y2="105.0" stroke="#ffae5c" stroke-width="2.4" marker-end="url(#mB)" opacity="0.95"/>
<line x1="857.9" y1="113.9" x2="1200.1" y2="456.1" stroke="#ffae5c" stroke-width="2.4" marker-end="url(#mB)" opacity="0.95"/>
<line x1="1320.1" y1="83.9" x2="1217.9" y2="186.1" stroke="#ffd24a" stroke-width="2.4" marker-end="url(#mM)" opacity="0.95"/>
<polygon points="1209,182 1222,203 1196,203" fill="#b388ff" fill-opacity="0.5" stroke="#c77dff" stroke-width="1.6"/>
<text x="1209.0" y="180.0" fill="#b388ff" font-size="7.5" text-anchor="middle" font-weight="bold" font-family="monospace">프리즘[고정]</text>
<rect x="688" y="184" width="22" height="22" rx="2" fill="#5fd9ff" fill-opacity="0.3" stroke="#5fd9ff" stroke-width="1.4"/>
<line x1="709.0" y1="190.9" x2="689.0" y2="199.1" stroke="#5fd9ff" stroke-width="2"/>
<text x="699.0" y="182.2" fill="#5fd9ff" font-size="7" text-anchor="middle" font-weight="bold" font-family="monospace">A1</text>
<text x="699.0" y="214.8" fill="#7a8aa0" font-size="6.5" text-anchor="middle" font-weight="normal" font-family="monospace">67.5°</text>
<rect x="448" y="424" width="22" height="22" rx="2" fill="#5fd9ff" fill-opacity="0.3" stroke="#5fd9ff" stroke-width="1.4"/>
<line x1="449.0" y1="439.1" x2="469.0" y2="430.9" stroke="#5fd9ff" stroke-width="2"/>
<text x="459.0" y="422.2" fill="#5fd9ff" font-size="7" text-anchor="middle" font-weight="bold" font-family="monospace">A2</text>
<text x="459.0" y="454.8" fill="#7a8aa0" font-size="6.5" text-anchor="middle" font-weight="normal" font-family="monospace">247.5°</text>
<rect x="178" y="424" width="22" height="22" rx="2" fill="#5fd9ff" fill-opacity="0.3" stroke="#5fd9ff" stroke-width="1.4"/>
<line x1="184.9" y1="425.0" x2="193.1" y2="445.0" stroke="#5fd9ff" stroke-width="2"/>
<text x="189.0" y="422.2" fill="#5fd9ff" font-size="7" text-anchor="middle" font-weight="bold" font-family="monospace">A3</text>
<text x="189.0" y="454.8" fill="#7a8aa0" font-size="6.5" text-anchor="middle" font-weight="normal" font-family="monospace">337.5°</text>
<rect x="538" y="64" width="22" height="22" rx="2" fill="#8a97b0" fill-opacity="0.3" stroke="#8a97b0" stroke-width="1.4"/>
<line x1="559.8" y1="75.0" x2="538.2" y2="75.0" stroke="#8a97b0" stroke-width="2"/>
<text x="549.0" y="62.2" fill="#8a97b0" font-size="7" text-anchor="middle" font-weight="bold" font-family="monospace">A4[고정]</text>
<text x="549.0" y="94.8" fill="#7a8aa0" font-size="6.5" text-anchor="middle" font-weight="normal" font-family="monospace">90°</text>
<rect x="928" y="454" width="22" height="22" rx="2" fill="#5fd9ff" fill-opacity="0.3" stroke="#5fd9ff" stroke-width="1.4"/>
<line x1="929.0" y1="460.9" x2="949.0" y2="469.1" stroke="#5fd9ff" stroke-width="2"/>
<text x="939.0" y="452.2" fill="#5fd9ff" font-size="7" text-anchor="middle" font-weight="bold" font-family="monospace">A5</text>
<text x="939.0" y="484.8" fill="#7a8aa0" font-size="6.5" text-anchor="middle" font-weight="normal" font-family="monospace">292.5°</text>
<rect x="1078" y="64" width="22" height="22" rx="2" fill="#5fd9ff" fill-opacity="0.3" stroke="#5fd9ff" stroke-width="1.4"/>
<line x1="1099.8" y1="75.0" x2="1078.2" y2="75.0" stroke="#5fd9ff" stroke-width="2"/>
<text x="1089.0" y="62.2" fill="#5fd9ff" font-size="7" text-anchor="middle" font-weight="bold" font-family="monospace">B1</text>
<text x="1089.0" y="94.8" fill="#7a8aa0" font-size="6.5" text-anchor="middle" font-weight="normal" font-family="monospace">90°</text>
<rect x="688" y="454" width="22" height="22" rx="2" fill="#5fd9ff" fill-opacity="0.3" stroke="#5fd9ff" stroke-width="1.4"/>
<line x1="688.2" y1="465.0" x2="709.8" y2="465.0" stroke="#5fd9ff" stroke-width="2"/>
<text x="699.0" y="452.2" fill="#5fd9ff" font-size="7" text-anchor="middle" font-weight="bold" font-family="monospace">B2</text>
<text x="699.0" y="484.8" fill="#7a8aa0" font-size="6.5" text-anchor="middle" font-weight="normal" font-family="monospace">270°</text>
<rect x="328" y="94" width="22" height="22" rx="2" fill="#5fd9ff" fill-opacity="0.3" stroke="#5fd9ff" stroke-width="1.4"/>
<line x1="343.1" y1="95.0" x2="334.9" y2="115.0" stroke="#5fd9ff" stroke-width="2"/>
<text x="339.0" y="92.2" fill="#5fd9ff" font-size="7" text-anchor="middle" font-weight="bold" font-family="monospace">B3</text>
<text x="339.0" y="124.8" fill="#7a8aa0" font-size="6.5" text-anchor="middle" font-weight="normal" font-family="monospace">22.5°</text>
<rect x="838" y="94" width="22" height="22" rx="2" fill="#5fd9ff" fill-opacity="0.3" stroke="#5fd9ff" stroke-width="1.4"/>
<line x1="859.0" y1="109.1" x2="839.0" y2="100.9" stroke="#5fd9ff" stroke-width="2"/>
<text x="849.0" y="92.2" fill="#5fd9ff" font-size="7" text-anchor="middle" font-weight="bold" font-family="monospace">B4</text>
<text x="849.0" y="124.8" fill="#7a8aa0" font-size="6.5" text-anchor="middle" font-weight="normal" font-family="monospace">112.5°</text>
<circle cx="1329" cy="75" r="9" fill="#ffd24a" stroke="#fff0b0" stroke-width="1.6"/>
<text x="1329.0" y="60.0" fill="#ffd24a" font-size="7.5" text-anchor="middle" font-weight="bold" font-family="monospace">소스↙</text>
<rect x="1197" y="453" width="24" height="24" rx="2" fill="#0a0c14" stroke="#ffd700" stroke-width="1.8"/><circle cx="1209" cy="465" r="7" fill="#ffd700"/>
<text x="1209.0" y="483.6" fill="#ffd700" font-size="7.5" text-anchor="middle" font-weight="bold" font-family="monospace">게이트</text>
<circle cx="69" cy="432" r="8" fill="#ff5fa2" stroke="#ffd0e4" stroke-width="1.4"/>
<text x="69.0" y="450.0" fill="#ff5fa2" font-size="7.5" text-anchor="middle" font-weight="bold" font-family="monospace">스폰</text>
<text x="702.0" y="28.0" fill="#dfe8f5" font-size="13" text-anchor="middle" font-weight="bold" font-family="monospace">Stage 03 — 프리즘 분기 + 광량 합산</text>
<text x="702.0" y="45.0" fill="#8a98a8" font-size="9" text-anchor="middle" font-weight="normal" font-family="monospace">입력↙→직선A←+상단대각B↖(바닥면 미사용) · A4·프리즘 고정 · 게이트 Σ=1.0</text>
</svg>